<svg width="16" height="13" viewBox="0 0 16 13" fill="none" xmlns="http://www.w3.org/2000/svg">
<path d="M7.92874 1.69516L7.95812 1.725H8H14.4C14.8128 1.725 15.1639 1.87304 15.4587 2.1725C15.7536 2.47201 15.9 2.82936 15.9 3.25V11.375C15.9 11.7956 15.7536 12.153 15.4587 12.4525C15.1639 12.752 14.8128 12.9 14.4 12.9H1.6C1.18724 12.9 0.836111 12.752 0.541257 12.4525C0.246356 12.153 0.1 11.7956 0.1 11.375V1.625C0.1 1.20436 0.246356 0.847013 0.541257 0.547504C0.836111 0.248043 1.18724 0.1 1.6 0.1H6.35812L7.92874 1.69516ZM1.5 11.375V11.475H1.6H14.4H14.5V11.375V3.25V3.15H14.4H7.38188L5.81126 1.55484L5.78188 1.525H5.74H1.6H1.5V1.625V11.375Z" fill="#404040" stroke="white" stroke-width="0.2"/>
</svg>
